<svg width="45" height="45" viewBox="0 0 45 45" fill="none" xmlns="http://www.w3.org/2000/svg">
<g filter="url(#filter0_i_1849_695)">
<rect width="45" height="45" rx="22.5" fill="white"/>
</g>
<path d="M29.3654 30.292C29.1566 30.5007 28.926 30.684 28.6901 30.8598C27.6106 31.6655 26.403 32.184 25.0876 32.4597C24.5665 32.5689 24.0395 32.6323 23.5085 32.6665C23.4958 32.6674 23.4832 32.6698 23.4705 32.6715C23.4401 32.6888 23.4071 32.6767 23.3756 32.6804H23.1209C23.0643 32.6851 23.0065 32.6698 22.9507 32.69H22.681C22.6491 32.6698 22.6136 32.6847 22.5802 32.6804H22.3065C21.7721 32.674 21.2475 32.5889 20.7272 32.4762C19.9398 32.3052 19.1772 32.0355 18.4573 31.6736C17.7339 31.3122 17.0581 30.8627 16.4452 30.3353C15.7688 29.7541 15.1728 29.0856 14.6728 28.3474C14.4609 28.0342 14.2718 27.7067 14.0934 27.3733C14.0742 27.3369 14.0507 27.3012 14.0498 27.2578C14.0928 27.1735 14.1787 27.1351 14.2481 27.0816C14.8956 26.5831 15.5377 26.0776 16.1851 25.579C16.5152 25.3249 16.8444 25.0694 17.1726 24.8128C17.2187 24.7769 17.2577 24.7225 17.3276 24.7279C17.3938 24.8874 17.448 25.0515 17.5185 25.209C18.1299 26.5791 19.1016 27.6025 20.4591 28.2516C21.0235 28.5227 21.6314 28.6922 22.2548 28.7526C23.3646 28.8605 24.4341 28.7062 25.455 28.2487C25.6885 28.143 25.9138 28.0202 26.1292 27.8813C26.1533 27.8659 26.1789 27.8524 26.2039 27.8384C26.2431 27.834 26.2697 27.8577 26.2976 27.8795C27.2372 28.6108 28.1774 29.3413 29.1183 30.0709C29.2051 30.1384 29.3132 30.1849 29.3654 30.292Z" fill="#34A853"/>
<path d="M23.1429 13H23.2772C23.7226 13.0213 24.1659 13.0635 24.6053 13.1406C25.6552 13.3248 26.648 13.671 27.5785 14.1932C28.2385 14.5635 28.8438 15.0087 29.3998 15.5211C29.4093 15.5289 29.4198 15.5356 29.4309 15.541L26.6199 18.3488C26.5384 18.2782 26.4455 18.1948 26.3495 18.1151C25.613 17.5034 24.7693 17.1246 23.8258 16.9676C23.3431 16.8872 22.8566 16.8644 22.3687 16.9098C21.2588 17.0125 20.2618 17.4033 19.3775 18.0822C18.4249 18.8156 17.7552 19.7555 17.3526 20.8864C17.3452 20.9075 17.3358 20.9278 17.3274 20.9484C17.2772 20.9677 17.2495 20.9271 17.219 20.9033C16.7236 20.5173 16.2259 20.1343 15.7297 19.7493C15.2563 19.3819 14.784 19.0131 14.3093 18.6475C14.2458 18.5987 14.1841 18.5471 14.1193 18.5002C14.0932 18.481 14.0673 18.4617 14.0635 18.4259C14.2133 18.11 14.389 17.8085 14.5798 17.5162C15.7319 15.7515 17.2853 14.4731 19.2401 13.6811C19.8686 13.4278 20.5192 13.2491 21.1877 13.1355C21.6112 13.0643 22.0388 13.0191 22.4679 13H23.1429Z" fill="#EA4335"/>
<path d="M29.3646 30.2921C28.8718 29.9098 28.3792 29.5275 27.8868 29.1449C27.3489 28.7269 26.8111 28.3085 26.2734 27.8899C26.2507 27.8722 26.227 27.8556 26.2039 27.8386C26.3597 27.7209 26.5191 27.6077 26.6663 27.4794C27.4454 26.7989 27.9467 25.9554 28.1609 24.943C28.1618 24.9329 28.1618 24.9228 28.1609 24.9127C28.1211 24.8925 28.0789 24.9021 28.0383 24.9021C26.3544 24.9015 24.6704 24.9013 22.9864 24.9014C22.8367 24.9014 22.8553 24.92 22.8552 24.7667C22.8547 23.6164 22.8547 22.4662 22.8552 21.3159C22.8552 21.1864 22.841 21.1974 22.9736 21.1974H32.0191C32.0352 21.1984 32.0513 21.1984 32.0673 21.1974C32.1205 21.1905 32.1413 21.2166 32.1482 21.2665C32.1873 21.5486 32.2244 21.8307 32.2503 22.1146C32.2897 22.546 32.2951 22.9781 32.2855 23.4106C32.2715 24.0092 32.2092 24.6057 32.099 25.1942C31.9773 25.8589 31.7885 26.5095 31.5354 27.1361C31.1336 28.1251 30.5806 29.0195 29.8568 29.8069C29.722 29.9532 29.5824 30.0943 29.4389 30.2319C29.4157 30.2538 29.3958 30.2801 29.3646 30.2921Z" fill="#4285F4"/>
<path d="M14.0646 18.4258C14.3097 18.6161 14.5547 18.8064 14.7998 18.9967C15.1711 19.2853 15.5424 19.5738 15.9136 19.8621C16.2042 20.0876 16.4952 20.3127 16.7865 20.5373C16.9484 20.6626 17.1101 20.7881 17.2716 20.9138C17.2894 20.9277 17.3061 20.9427 17.3286 20.9482C17.2634 21.1755 17.1947 21.4016 17.1456 21.633C17.0358 22.147 16.9964 22.6734 17.0283 23.198C17.0567 23.6967 17.1518 24.1893 17.3108 24.6629C17.3179 24.6839 17.3216 24.7059 17.3268 24.7275C17.1284 24.8794 16.9294 25.0304 16.732 25.1833C15.8429 25.8717 14.9538 26.5605 14.0646 27.2496C13.9221 26.9878 13.8046 26.7145 13.6942 26.4384C13.2016 25.2076 12.9666 23.8891 13.0038 22.5641C13.0483 21.1363 13.3876 19.782 14.0219 18.5011C14.0349 18.4753 14.0501 18.4507 14.0646 18.4258Z" fill="#FBBC05"/>
<defs>
<filter id="filter0_i_1849_695" x="0" y="0" width="45" height="49" filterUnits="userSpaceOnUse" color-interpolation-filters="sRGB">
<feFlood flood-opacity="0" result="BackgroundImageFix"/>
<feBlend mode="normal" in="SourceGraphic" in2="BackgroundImageFix" result="shape"/>
<feColorMatrix in="SourceAlpha" type="matrix" values="0 0 0 0 0 0 0 0 0 0 0 0 0 0 0 0 0 0 127 0" result="hardAlpha"/>
<feMorphology radius="629" operator="erode" in="SourceAlpha" result="effect1_innerShadow_1849_695"/>
<feOffset dy="4"/>
<feGaussianBlur stdDeviation="2"/>
<feComposite in2="hardAlpha" operator="arithmetic" k2="-1" k3="1"/>
<feColorMatrix type="matrix" values="0 0 0 0 1 0 0 0 0 1 0 0 0 0 1 0 0 0 0.25 0"/>
<feBlend mode="normal" in2="shape" result="effect1_innerShadow_1849_695"/>
</filter>
</defs>
</svg>
