<svg width="27" height="27" viewBox="0 0 27 27" fill="none" xmlns="http://www.w3.org/2000/svg">
<rect width="27" height="27" rx="13.5" fill="#FF3A3A"/>
<path d="M16.6388 9.01966V8.15299C16.6388 7.92522 16.4499 7.73633 16.2221 7.73633C15.9944 7.73633 15.8055 7.92522 15.8055 8.15299V8.98633H12.1944V8.15299C12.1944 7.92522 12.0055 7.73633 11.7777 7.73633C11.5499 7.73633 11.361 7.92522 11.361 8.15299V9.01966C9.86102 9.15855 9.13324 10.053 9.02213 11.3808C9.01102 11.5419 9.14435 11.6752 9.29991 11.6752H18.6999C18.861 11.6752 18.9944 11.5363 18.9777 11.3808C18.8666 10.053 18.1388 9.15855 16.6388 9.01966Z" fill="white"/>
<path d="M18.4444 12.5083H9.55556C9.25 12.5083 9 12.7583 9 13.0639V16.4861C9 18.1527 9.83333 19.2639 11.7778 19.2639H16.2222C18.1667 19.2639 19 18.1527 19 16.4861V13.0639C19 12.7583 18.75 12.5083 18.4444 12.5083ZM12.45 17.1583C12.4222 17.1805 12.3944 17.2083 12.3667 17.225C12.3333 17.2472 12.3 17.2639 12.2667 17.275C12.2333 17.2916 12.2 17.3027 12.1667 17.3083C12.1278 17.3139 12.0944 17.3194 12.0556 17.3194C11.9833 17.3194 11.9111 17.3027 11.8444 17.275C11.7722 17.2472 11.7167 17.2083 11.6611 17.1583C11.5611 17.0527 11.5 16.9083 11.5 16.7639C11.5 16.6194 11.5611 16.475 11.6611 16.3694C11.7167 16.3194 11.7722 16.2805 11.8444 16.2527C11.9444 16.2083 12.0556 16.1972 12.1667 16.2194C12.2 16.225 12.2333 16.2361 12.2667 16.2527C12.3 16.2639 12.3333 16.2805 12.3667 16.3027C12.3944 16.325 12.4222 16.3472 12.45 16.3694C12.55 16.475 12.6111 16.6194 12.6111 16.7639C12.6111 16.9083 12.55 17.0527 12.45 17.1583ZM12.45 15.2139C12.3444 15.3139 12.2 15.375 12.0556 15.375C11.9111 15.375 11.7667 15.3139 11.6611 15.2139C11.5611 15.1083 11.5 14.9639 11.5 14.8194C11.5 14.675 11.5611 14.5305 11.6611 14.425C11.8167 14.2694 12.0611 14.2194 12.2667 14.3083C12.3389 14.3361 12.4 14.375 12.45 14.425C12.55 14.5305 12.6111 14.675 12.6111 14.8194C12.6111 14.9639 12.55 15.1083 12.45 15.2139ZM14.3944 17.1583C14.2889 17.2583 14.1444 17.3194 14 17.3194C13.8556 17.3194 13.7111 17.2583 13.6056 17.1583C13.5056 17.0527 13.4444 16.9083 13.4444 16.7639C13.4444 16.6194 13.5056 16.475 13.6056 16.3694C13.8111 16.1639 14.1889 16.1639 14.3944 16.3694C14.4944 16.475 14.5556 16.6194 14.5556 16.7639C14.5556 16.9083 14.4944 17.0527 14.3944 17.1583ZM14.3944 15.2139C14.3667 15.2361 14.3389 15.2583 14.3111 15.2805C14.2778 15.3027 14.2444 15.3194 14.2111 15.3305C14.1778 15.3472 14.1444 15.3583 14.1111 15.3639C14.0722 15.3694 14.0389 15.375 14 15.375C13.8556 15.375 13.7111 15.3139 13.6056 15.2139C13.5056 15.1083 13.4444 14.9639 13.4444 14.8194C13.4444 14.675 13.5056 14.5305 13.6056 14.425C13.6556 14.375 13.7167 14.3361 13.7889 14.3083C13.9944 14.2194 14.2389 14.2694 14.3944 14.425C14.4944 14.5305 14.5556 14.675 14.5556 14.8194C14.5556 14.9639 14.4944 15.1083 14.3944 15.2139ZM16.3389 17.1583C16.2333 17.2583 16.0889 17.3194 15.9444 17.3194C15.8 17.3194 15.6556 17.2583 15.55 17.1583C15.45 17.0527 15.3889 16.9083 15.3889 16.7639C15.3889 16.6194 15.45 16.475 15.55 16.3694C15.7556 16.1639 16.1333 16.1639 16.3389 16.3694C16.4389 16.475 16.5 16.6194 16.5 16.7639C16.5 16.9083 16.4389 17.0527 16.3389 17.1583ZM16.3389 15.2139C16.3111 15.2361 16.2833 15.2583 16.2556 15.2805C16.2222 15.3027 16.1889 15.3194 16.1556 15.3305C16.1222 15.3472 16.0889 15.3583 16.0556 15.3639C16.0167 15.3694 15.9778 15.375 15.9444 15.375C15.8 15.375 15.6556 15.3139 15.55 15.2139C15.45 15.1083 15.3889 14.9639 15.3889 14.8194C15.3889 14.675 15.45 14.5305 15.55 14.425C15.6056 14.375 15.6611 14.3361 15.7333 14.3083C15.8333 14.2639 15.9444 14.2527 16.0556 14.275C16.0889 14.2805 16.1222 14.2916 16.1556 14.3083C16.1889 14.3194 16.2222 14.3361 16.2556 14.3583C16.2833 14.3805 16.3111 14.4027 16.3389 14.425C16.4389 14.5305 16.5 14.675 16.5 14.8194C16.5 14.9639 16.4389 15.1083 16.3389 15.2139Z" fill="white"/>
</svg>
