<svg width="27" height="27" viewBox="0 0 27 27" fill="none" xmlns="http://www.w3.org/2000/svg">
<rect width="27" height="27" rx="13.5" fill="#51BFF3"/>
<path d="M13.5 8C10.4695 8 8 10.4695 8 13.5C8 16.5305 10.4695 19 13.5 19C16.5305 19 19 16.5305 19 13.5C19 10.4695 16.5305 8 13.5 8ZM15.8925 15.4635C15.8155 15.5955 15.678 15.667 15.535 15.667C15.4635 15.667 15.392 15.6505 15.326 15.6065L13.621 14.589C13.1975 14.336 12.884 13.7805 12.884 13.291V11.036C12.884 10.8105 13.071 10.6235 13.2965 10.6235C13.522 10.6235 13.709 10.8105 13.709 11.036V13.291C13.709 13.489 13.874 13.7805 14.0445 13.8795L15.7495 14.897C15.9475 15.0125 16.0135 15.2655 15.8925 15.4635Z" fill="white"/>
</svg>
